Jump_normalized_Precision Landing15_filtered_grf
version=1
nRows=10
nColumns=37
inDegrees=yes
endheader
time		1_ground_force_vx		1_ground_force_vy		1_ground_force_vz		1_ground_force_px		1_ground_force_py		1_ground_force_pz		1_ground_torque_x		1_ground_torque_y		1_ground_torque_z		2_ground_force_vx		2_ground_force_vy		2_ground_force_vz		2_ground_force_px		2_ground_force_py		2_ground_force_pz		2_ground_torque_x		2_ground_torque_y		2_ground_torque_z		3_ground_force_vx		3_ground_force_vy		3_ground_force_vz		3_ground_force_px		3_ground_force_py		3_ground_force_pz		3_ground_torque_x		3_ground_torque_y		3_ground_torque_z		4_ground_force_vx		4_ground_force_vy		4_ground_force_vz		4_ground_force_px		4_ground_force_py		4_ground_force_pz		4_ground_torque_x		4_ground_torque_y		4_ground_torque_z		
0.429500		0.000000		0.000000		0.000000		0.103552		0.000000		0.319021		0.000000		0.000000		-0.000000		-0.000000		0.000000		0.000000		-0.151368		0.000000		0.304495		0.000000		0.000000		0.000000		-32.675155		463.539019		-100.993041		0.352517		1.254641		1.894852		1.718787		-24.383193		5.312461		-22.088109		59.384214		1.601943		-0.289290		1.264560		1.903761		-0.976198		2.624522		0.070799		
0.432606		-0.000000		0.000000		0.000000		0.103552		0.000000		0.319021		0.000000		0.000000		-0.000000		-0.000000		0.000000		0.000000		-0.151368		0.000000		0.304495		0.000000		-0.000000		0.000000		-30.044218		449.905291		-101.761322		0.352518		1.254645		1.894794		1.577701		-23.625707		5.343753		-21.865656		42.253163		5.276867		-0.289314		1.264588		1.903620		-0.758290		1.466099		0.182871		
0.435712		-0.000000		0.000000		0.000000		0.103552		0.000000		0.319021		0.000000		0.000000		-0.000000		0.000000		0.000000		0.000000		-0.151368		0.000000		0.304495		0.000000		-0.000000		0.000000		-27.413603		435.287808		-101.845290		0.352531		1.254651		1.894725		1.435429		-22.792473		5.332804		-21.365239		27.118138		6.649640		-0.289340		1.264618		1.903475		-0.446041		0.567473		0.138782		
0.438818		-0.000000		-0.000000		0.000000		0.103552		0.000000		0.319021		0.000000		0.000000		0.000000		0.000000		0.000000		0.000000		-0.151368		0.000000		0.304495		0.000000		-0.000000		0.000000		-24.867757		419.509690		-101.246727		0.352540		1.254666		1.894657		1.296762		-21.875849		5.279631		-20.691219		14.759828		5.941957		-0.289365		1.264648		1.903333		-0.086961		0.063006		0.025096		
0.441924		-0.000000		-0.000000		-0.000000		0.103552		0.000000		0.319021		-0.000000		0.000000		0.000000		0.000000		-0.000000		0.000000		-0.151368		0.000000		0.304495		0.000000		-0.000000		-0.000000		-22.446770		402.380886		-99.925370		0.352535		1.254696		1.894595		1.164241		-20.870150		5.182791		-19.967407		5.760186		3.842206		-0.289391		1.264676		1.903200		0.116070		-0.033394		-0.022306		
0.445030		-0.000000		-0.000000		-0.000000		0.103552		0.000000		0.319021		-0.000000		-0.000000		0.000000		0.000000		-0.000000		-0.000000		-0.151368		0.000000		0.304495		-0.000000		-0.000000		-0.000000		-20.132798		383.726204		-97.829217		0.352509		1.254747		1.894542		1.037418		-19.772920		5.041013		-19.303268		0.243165		1.233708		-0.289420		1.264701		1.903081		0.052423		-0.000698		-0.003376		
0.448136		0.000000		-0.000000		-0.000000		0.103552		0.000000		0.319021		-0.000000		-0.000000		0.000000		0.000000		-0.000000		-0.000000		-0.151368		0.000000		0.304495		-0.000000		0.000000		-0.000000		-17.851388		363.434147		-94.924696		0.352456		1.254816		1.894492		0.912952		-18.586633		4.854604		-18.770416		-2.221399		-1.120219		-0.289453		1.264717		1.902978		-0.071639		-0.008507		-0.004327		
0.451242		0.000000		-0.000000		-0.000000		0.103552		0.000000		0.319021		-0.000000		-0.000000		0.000000		-0.000000		-0.000000		-0.000000		-0.151368		0.000000		0.304495		-0.000000		0.000000		-0.000000		-15.475959		341.540052		-91.171632		0.352387		1.254892		1.894435		0.784872		-17.321301		4.623790		-18.399833		-2.492269		-2.776691		-0.289490		1.264723		1.902886		-0.120209		-0.016281		-0.018145		
0.454348		0.000000		-0.000000		-0.000000		0.103552		0.000000		0.319021		-0.000000		-0.000000		-0.000000		-0.000000		-0.000000		-0.000000		-0.151368		0.000000		0.304495		-0.000000		0.000000		-0.000000		-12.916077		318.230978		-86.555581		0.352307		1.254960		1.894358		0.649102		-15.992704		4.349849		-18.199031		-1.548376		-3.624106		-0.289532		1.264721		1.902801		-0.099841		-0.008509		-0.019876		
0.457455		0.000000		0.000000		-0.000000		0.103552		0.000000		0.319021		0.000000		-0.000000		-0.000000		-0.000000		0.000000		-0.000000		-0.151368		0.000000		0.304495		-0.000000		0.000000		0.000000		-10.156402		293.837387		-81.062862		0.352224		1.255010		1.894251		0.505349		-14.620306		4.033399		-18.166401		-0.239802		-3.792517		-0.289574		1.264711		1.902717		-0.050768		-0.000678		-0.010599		
